<?xml version="1.0" standalone="no"?>
<!DOCTYPE svg PUBLIC "-//W3C//DTD SVG 20010904//EN"
 "http://www.w3.org/TR/2001/REC-SVG-20010904/DTD/svg10.dtd">
<svg version="1.0" xmlns="http://www.w3.org/2000/svg"
 width="400.000000pt" height="400.000000pt" viewBox="0 0 400.000000 400.000000"
 preserveAspectRatio="xMidYMid meet">

<g transform="translate(0.000000,400.000000) scale(0.100000,-0.100000)"
fill="#000000" stroke="none">
<path d="M1859 3492 c-115 -38 -212 -141 -239 -253 -29 -120 13 -261 102 -345
178 -167 463 -114 567 106 23 48 26 68 26 155 0 114 -17 160 -86 239 -86 97
-245 139 -370 98z m170 -122 c96 -27 163 -118 162 -220 -1 -191 -214 -292
-368 -175 -46 36 -83 115 -83 180 1 147 147 256 289 215z"/>
<path d="M1415 2735 c-122 -35 -285 -139 -362 -231 -159 -193 -162 -392 -7
-554 100 -105 288 -217 447 -266 71 -22 73 -4 -29 -243 -93 -217 -255 -547
-369 -745 -46 -83 -84 -150 -82 -151 20 -15 96 -55 104 -55 11 0 117 183 231
400 77 146 191 391 272 589 l64 153 55 -7 c124 -15 309 -23 414 -18 l112 6 44
-109 c103 -257 423 -919 480 -993 l19 -25 47 25 c26 13 49 29 51 35 3 5 -19
53 -47 105 -131 237 -432 877 -451 958 -2 10 18 18 75 27 91 16 311 86 382
121 81 41 131 88 164 155 27 53 31 72 31 144 0 176 -96 373 -253 521 -288 268
-625 203 -688 -134 -7 -35 -9 -114 -6 -198 6 -144 28 -260 80 -427 l24 -77
-74 -7 c-94 -8 -376 9 -402 25 -8 5 -5 25 10 67 65 186 96 457 70 608 -33 191
-139 305 -290 312 -37 2 -88 -3 -116 -11z m176 -138 c82 -55 104 -123 104
-327 0 -142 -3 -165 -33 -282 -18 -70 -40 -144 -48 -164 -13 -32 -18 -35 -42
-29 -62 15 -182 68 -259 112 -217 126 -288 249 -232 398 18 48 38 76 103 140
147 147 320 211 407 152z m999 -24 c161 -78 305 -276 341 -470 18 -95 -25
-179 -115 -225 -95 -49 -372 -128 -447 -128 -15 0 -25 22 -54 111 -51 163 -75
300 -75 433 0 166 32 256 103 293 81 42 138 39 247 -14z"/>
</g>
</svg>
